<svg width="319" height="336" viewBox="0 0 319 336" fill="none" xmlns="http://www.w3.org/2000/svg">
<path d="M125.691 23.5783L127.212 23.3882C128.48 23.2614 130.001 23.5783 131.776 24.3389C131.903 23.3248 132.346 22.8177 133.107 22.8177L137.671 22.2472C139.065 24.4023 142.615 26.5574 148.319 28.7125C148.446 29.3464 154.151 34.3538 165.433 43.7348V45.2561C165.56 46.397 165.433 47.4112 165.053 48.2986C165.687 49.1859 166.067 50.1367 166.194 51.1509V51.9115C164.292 57.2359 159.031 62.687 150.411 68.2649C149.397 70.1664 140.016 79.8644 122.268 97.3587L120.747 97.5489L117.514 94.8867L114.662 105.155C102.238 114.663 89.688 125.502 77.0109 137.672C74.4755 137.925 70.926 140.587 66.3622 145.658C68.0102 147.687 73.0177 151.236 81.3845 156.307C81.5113 157.321 85.4412 160.681 93.1742 166.385C96.7237 170.442 100.907 173.801 105.724 176.463C105.851 177.097 108.323 178.619 113.141 181.027L115.232 186.161C114.725 186.288 114.535 186.605 114.662 187.112L112.95 186.352L110.668 186.732C109.908 186.732 108.387 188.697 106.105 192.627V194.148L112.95 193.387C118.275 190.725 121.19 189.331 121.698 189.204L123.409 191.486L122.838 193.007L124.17 196.62C123.282 198.395 122.902 199.979 123.029 201.374C124.677 201.247 127.275 199.409 130.825 195.859C142.361 203.339 148.319 208.6 148.7 211.642L149.27 217.537C149.017 225.27 147.432 229.327 144.516 229.707C129.431 245.046 115.613 258.547 103.062 270.21C101.414 274.52 95.2659 280.795 84.6172 289.036C80.5605 295.754 72.0669 304.628 59.1363 315.657C49.5018 327.067 42.2758 333.469 37.4586 334.863C34.7964 334.61 32.5145 334.61 30.613 334.863L27.5705 335.053C10.8368 321.742 2.27977 313.249 1.89946 309.572L0.568373 298.353C0.188062 294.804 5.44903 289.353 16.3513 282C17.1119 280.605 22.7532 275.915 33.2751 267.928C41.1349 258.421 49.8187 251.575 59.3265 247.391C68.4539 241.687 79.99 233.32 93.9348 222.291C98.3717 219.756 100.78 218.424 101.161 218.298V217.537C90.0049 211.072 79.6097 202.515 69.9752 191.866C68.8342 191.993 58.6926 183.182 39.5503 165.434C37.3952 165.688 34.3527 163.469 30.4228 158.779C24.5914 153.455 17.3021 147.877 8.55491 142.045L7.41398 130.826C7.28721 130.065 10.7734 126.833 17.8725 121.128C24.7181 112.761 31.5004 107.183 38.2192 104.394C50.7695 94.8867 59.1363 87.8509 63.3197 83.2872C72.0669 78.2164 84.427 67.3775 100.4 50.7706C103.062 50.517 111.492 41.453 125.691 23.5783ZM129.304 50.01L130.445 53.6229L131.966 53.4328C132.219 50.7706 132.346 49.2493 132.346 48.869L130.635 48.2986C129.621 48.5521 129.177 49.1226 129.304 50.01ZM128.923 80.625L130.445 81.1955C132.727 78.9136 133.741 76.505 133.487 73.9696L131.966 73.3991L130.445 73.5893C129.557 73.716 129.05 76.0613 128.923 80.625ZM71.4964 88.4214C71.8767 89.4356 72.4472 89.8792 73.2078 89.7525L73.7783 88.2312L73.5881 86.71H72.8275C71.9401 87.0903 71.4964 87.6608 71.4964 88.4214ZM50.9596 103.063L51.1498 105.155H52.671L52.4809 102.873L50.9596 103.063ZM21.2953 125.312L18.2528 125.692L18.443 127.213L24.7181 128.734C24.5914 127.847 27.4437 125.755 33.2751 122.459L33.085 120.177L31.5637 120.368C30.0425 120.621 26.6197 122.269 21.2953 125.312ZM20.915 135.39L20.5347 139.193L22.8166 139.003C22.6898 137.355 22.8166 136.087 23.1969 135.2L20.915 135.39ZM73.0177 129.685L73.2078 131.206C73.4614 132.094 74.0318 132.537 74.9192 132.537C75.9334 132.411 76.3771 131.84 76.2503 130.826C74.8558 129.939 74.0318 129.495 73.7783 129.495L73.0177 129.685ZM57.2347 158.969C57.4883 159.983 57.9954 160.427 58.756 160.3L59.5166 158.589L57.2347 158.969ZM53.4316 173.041V173.801C53.6852 174.815 54.2556 175.259 55.143 175.132C57.0446 174.245 57.9954 173.421 57.9954 172.66L57.8052 171.139C57.6784 170.125 57.108 169.681 56.0938 169.808C55.3332 169.808 54.4458 170.886 53.4316 173.041ZM81.955 182.168L82.1451 184.45C82.2719 185.211 83.0959 185.908 84.6172 186.542L85.1876 184.83C84.6805 184.07 84.3636 183.119 84.2368 181.978L81.955 182.168ZM75.1094 183.689L75.4897 186.732H76.2503C77.2645 186.605 77.7082 186.035 77.5814 185.02L77.3912 183.499L75.1094 183.689ZM99.069 198.712C99.3225 199.726 99.893 200.17 100.78 200.043L101.351 198.521L99.069 198.712ZM87.4695 205.367L87.6596 206.888L88.4203 206.698C89.1809 206.698 89.8781 205.874 90.512 204.226L88.8006 203.656C87.9132 203.909 87.4695 204.48 87.4695 205.367ZM104.013 209.551L103.443 211.262C104.33 211.135 105.661 211.706 107.436 212.973H108.196V211.452C108.07 210.565 106.675 209.931 104.013 209.551ZM102.111 219.058L98.8788 224.763L99.2591 228.566C99.3859 229.327 100.527 230.214 102.682 231.228C104.457 226.918 107.753 224.509 112.57 224.002C115.993 222.228 117.641 221.023 117.514 220.389C117.387 218.995 113.774 218.361 106.675 218.488C105.661 219.122 104.9 219.439 104.393 219.439C103.379 219.058 102.619 218.932 102.111 219.058ZM126.071 229.327C126.325 230.848 125.691 234.017 124.17 238.834L126.642 239.975L128.163 239.785C128.797 239.785 129.431 238.961 130.064 237.313C129.05 232.876 128.48 230.151 128.353 229.137L126.071 229.327ZM48.2974 272.492L48.4876 273.823L51.5301 274.394L51.3399 272.112L48.2974 272.492ZM87.6596 268.118L87.8498 271.161L90.1317 270.781L89.9415 269.259C89.8147 268.245 89.3077 267.802 88.4203 267.928L87.6596 268.118ZM14.4497 291.508V292.268L15.2104 292.078C15.971 292.078 16.6682 291.254 17.3021 289.606L17.1119 288.085C16.3513 288.212 15.4639 289.353 14.4497 291.508ZM59.8969 287.895L61.4182 287.704C62.4323 287.704 62.876 287.197 62.7493 286.183H61.228C60.2139 286.564 59.7702 287.134 59.8969 287.895ZM33.4653 290.177L34.0358 295.311C35.1767 300.382 36.4444 302.79 37.8389 302.537H39.3601C40.3743 298.48 40.818 295.628 40.6912 293.98C38.029 292.712 36.5712 291.317 36.3176 289.796L33.4653 290.177ZM232.558 -0.000976205H263.173C266.85 -0.000976205 269.258 1.33011 270.399 3.99229V26.4307L271.35 33.6566C277.562 32.0086 285.041 28.5858 293.788 23.3882H309.001C311.536 23.3882 313.945 28.8393 316.227 39.7415V50.9607C316.227 54.2568 311.79 60.7221 302.916 70.3566C313.057 77.8361 318.128 86.6466 318.128 96.7882C316.861 97.4221 315.846 97.739 315.086 97.739C307.606 96.7249 303.867 95.0768 303.867 92.795V88.6115L308.05 83.4773C305.515 79.4207 302.092 77.3924 297.782 77.3924L296.831 79.4841V80.4349C300.887 80.4349 302.916 81.8293 302.916 84.6183C301.521 88.6749 300.507 90.7033 299.873 90.7033L300.824 92.795C300.824 95.2036 299.493 98.2461 296.831 101.922C300.38 101.289 302.409 100.972 302.916 100.972L308.05 101.922C310.712 101.289 313.438 100.972 316.227 100.972C316.861 102.239 317.177 103.254 317.177 104.014C317.177 105.535 314.832 107.881 310.142 111.05L311.093 117.135C308.304 120.558 306.592 122.269 305.958 122.269L299.873 121.318C296.197 121.952 293.471 122.269 291.697 122.269L276.484 118.276H275.343V144.707C275.343 145.722 274.329 146.736 272.301 147.75H254.997L249.862 143.757L244.918 147.75C238.073 147.75 234.65 143.313 234.65 134.439C234.65 131.143 233.953 127.403 232.558 123.22C219.247 129.432 212.148 132.537 211.261 132.537H197.95C194.527 132.537 191.485 126.769 188.822 115.233V99.8307C189.076 98.4363 189.773 97.739 190.914 97.739H195.858C195.858 93.9359 200.295 88.8651 209.169 82.5266V81.5758C201.69 75.364 197.95 71.9412 197.95 71.3074L199.091 65.2224L196.999 64.2716C194.717 66.3 193.006 67.3141 191.865 67.3141C190.597 67.3141 185.843 63.1941 177.603 54.954V54.0032C177.603 51.2143 177.92 48.4887 178.554 45.8265C177.92 43.1644 177.603 40.8191 177.603 38.7908C184.576 33.5932 190.344 28.8393 194.907 24.5291H211.261C220.008 27.8251 225.079 29.4731 226.473 29.4731L227.614 27.5716C227.614 9.18988 229.262 -0.000976205 232.558 -0.000976205ZM281.618 68.2649V69.2157C281.618 69.9763 281.935 70.9905 282.569 72.2582L281.618 78.5333V79.4841H284.661C286.689 78.8502 287.703 76.8219 287.703 73.3991C287.703 72.5117 285.992 70.8003 282.569 68.2649H281.618ZM258.039 71.3074V73.3991H263.173C264.568 73.3991 265.265 72.7019 265.265 71.3074V70.3566L260.131 69.2157C258.736 69.4692 258.039 70.1664 258.039 71.3074ZM269.258 71.3074V72.2582H271.35V71.3074H269.258ZM246.82 86.5198V92.795C247.073 94.0627 247.771 94.6965 248.912 94.6965C250.306 92.5414 251.003 90.8934 251.003 89.7525C250.243 88.358 249.862 87.2805 249.862 86.5198H246.82Z" fill="white"/>
</svg>
